<svg width="114" height="27" viewBox="0 0 114 27" fill="none" xmlns="http://www.w3.org/2000/svg">
<path d="M0 22.736V21H14V22.736H0ZM20.3077 10.668H30.4157V13.076H20.3077V10.668ZM20.5877 21H17.7877V1.4H31.6197V3.836H20.5877V21ZM35.1691 21V0.223999H37.8571V21H35.1691ZM43.6334 26.6C42.9241 26.6 42.2334 26.4787 41.5614 26.236C40.8894 26.012 40.3107 25.676 39.8254 25.228L40.9734 23.212C41.3467 23.5667 41.7574 23.8373 42.2054 24.024C42.6534 24.2107 43.1294 24.304 43.6334 24.304C44.2867 24.304 44.8281 24.136 45.2574 23.8C45.6867 23.464 46.0881 22.8667 46.4614 22.008L47.3854 19.964L47.6654 19.628L53.4894 6.16H56.1214L48.9254 22.484C48.4961 23.5293 48.0107 24.3507 47.4694 24.948C46.9467 25.5453 46.3681 25.9653 45.7334 26.208C45.0987 26.4693 44.3987 26.6 43.6334 26.6ZM47.1614 21.476L40.3854 6.16H43.1854L48.9534 19.376L47.1614 21.476ZM56.894 21L60.814 1.4H70.278C72.406 1.4 74.03 1.78267 75.15 2.548C76.2887 3.31333 76.858 4.424 76.858 5.88C76.858 7.112 76.5314 8.148 75.878 8.988C75.2434 9.828 74.394 10.4627 73.33 10.892C72.266 11.3213 71.1087 11.536 69.858 11.536L70.586 10.416C72.2287 10.416 73.5354 10.7987 74.506 11.564C75.4954 12.3107 75.99 13.3933 75.99 14.812C75.99 16.1933 75.6074 17.3507 74.842 18.284C74.0954 19.1987 73.0594 19.88 71.734 20.328C70.4087 20.776 68.8874 21 67.17 21H56.894ZM62.102 17.584H67.45C68.7007 17.584 69.6807 17.3507 70.39 16.884C71.118 16.3987 71.482 15.6893 71.482 14.756C71.482 14.028 71.2114 13.5147 70.67 13.216C70.1474 12.8987 69.438 12.74 68.542 12.74H62.55L63.222 9.436H68.318C69.102 9.436 69.774 9.33333 70.334 9.128C70.9127 8.92267 71.3514 8.61467 71.65 8.204C71.9487 7.77467 72.098 7.26133 72.098 6.664C72.098 6.01067 71.846 5.544 71.342 5.264C70.838 4.96533 70.1287 4.816 69.214 4.816H64.622L62.102 17.584ZM85.8922 21.224C84.3615 21.224 83.0269 20.944 81.8882 20.384C80.7495 19.824 79.8629 19.04 79.2282 18.032C78.6122 17.024 78.3042 15.8387 78.3042 14.476C78.3042 12.796 78.6962 11.3027 79.4802 9.996C80.2642 8.67067 81.3375 7.62533 82.7002 6.86C84.0815 6.09467 85.6495 5.712 87.4042 5.712C88.9535 5.712 90.2882 5.992 91.4082 6.552C92.5469 7.112 93.4242 7.896 94.0402 8.904C94.6749 9.89333 94.9922 11.0787 94.9922 12.46C94.9922 14.1213 94.6002 15.6147 93.8162 16.94C93.0322 18.2653 91.9589 19.3107 90.5962 20.076C89.2335 20.8413 87.6655 21.224 85.8922 21.224ZM86.1722 17.64C87.0309 17.64 87.7869 17.4347 88.4402 17.024C89.1122 16.5947 89.6349 16.0067 90.0082 15.26C90.3815 14.5133 90.5682 13.6453 90.5682 12.656C90.5682 11.648 90.2695 10.836 89.6722 10.22C89.0749 9.604 88.2349 9.296 87.1522 9.296C86.2935 9.296 85.5282 9.51067 84.8562 9.94C84.2029 10.3507 83.6802 10.9293 83.2882 11.676C82.9149 12.4227 82.7282 13.2907 82.7282 14.28C82.7282 15.3067 83.0269 16.128 83.6242 16.744C84.2215 17.3413 85.0709 17.64 86.1722 17.64ZM104.213 21.224C102.682 21.224 101.347 20.944 100.209 20.384C99.0698 19.824 98.1832 19.04 97.5485 18.032C96.9325 17.024 96.6245 15.8387 96.6245 14.476C96.6245 12.796 97.0165 11.3027 97.8005 9.996C98.5845 8.67067 99.6578 7.62533 101.021 6.86C102.402 6.09467 103.97 5.712 105.725 5.712C107.274 5.712 108.609 5.992 109.729 6.552C110.867 7.112 111.745 7.896 112.361 8.904C112.995 9.89333 113.312 11.0787 113.312 12.46C113.312 14.1213 112.921 15.6147 112.137 16.94C111.353 18.2653 110.279 19.3107 108.917 20.076C107.554 20.8413 105.986 21.224 104.213 21.224ZM104.493 17.64C105.351 17.64 106.107 17.4347 106.761 17.024C107.433 16.5947 107.955 16.0067 108.329 15.26C108.702 14.5133 108.889 13.6453 108.889 12.656C108.889 11.648 108.59 10.836 107.993 10.22C107.395 9.604 106.555 9.296 105.473 9.296C104.614 9.296 103.849 9.51067 103.177 9.94C102.523 10.3507 102.001 10.9293 101.609 11.676C101.235 12.4227 101.049 13.2907 101.049 14.28C101.049 15.3067 101.347 16.128 101.945 16.744C102.542 17.3413 103.391 17.64 104.493 17.64Z" fill="#E6E6E6"/>
</svg>
